<mxfile host="65bd71144e">
    <diagram id="tq_mJF6on8W3urc6wu1b" name="Page-1">
        <mxGraphModel dx="762" dy="540" grid="1" gridSize="10" guides="1" tooltips="1" connect="1" arrows="1" fold="1" page="1" pageScale="1" pageWidth="850" pageHeight="1100" math="0" shadow="0">
            <root>
                <mxCell id="0"/>
                <mxCell id="1" parent="0"/>
                <mxCell id="8" value="User" style="swimlane;whiteSpace=wrap;html=1;" vertex="1" parent="1">
                    <mxGeometry x="170" y="10" width="120" height="180" as="geometry">
                        <mxRectangle x="40" y="40" width="70" height="30" as="alternateBounds"/>
                    </mxGeometry>
                </mxCell>
                <mxCell id="13" value="" style="rounded=0;whiteSpace=wrap;html=1;" vertex="1" parent="8">
                    <mxGeometry y="20" width="120" height="20" as="geometry"/>
                </mxCell>
                <mxCell id="14" value="" style="rounded=0;whiteSpace=wrap;html=1;" vertex="1" parent="8">
                    <mxGeometry y="40" width="120" height="20" as="geometry"/>
                </mxCell>
                <mxCell id="15" value="" style="rounded=0;whiteSpace=wrap;html=1;" vertex="1" parent="8">
                    <mxGeometry y="60" width="120" height="20" as="geometry"/>
                </mxCell>
                <mxCell id="16" value="" style="rounded=0;whiteSpace=wrap;html=1;" vertex="1" parent="8">
                    <mxGeometry y="80" width="120" height="20" as="geometry"/>
                </mxCell>
                <mxCell id="17" value="" style="rounded=0;whiteSpace=wrap;html=1;" vertex="1" parent="8">
                    <mxGeometry y="100" width="120" height="20" as="geometry"/>
                </mxCell>
                <mxCell id="18" value="" style="rounded=0;whiteSpace=wrap;html=1;" vertex="1" parent="8">
                    <mxGeometry y="120" width="120" height="20" as="geometry"/>
                </mxCell>
                <mxCell id="20" value="id" style="text;html=1;strokeColor=none;fillColor=none;align=center;verticalAlign=middle;whiteSpace=wrap;rounded=0;" vertex="1" parent="8">
                    <mxGeometry y="20" width="120" height="20" as="geometry"/>
                </mxCell>
                <mxCell id="21" value="email" style="text;html=1;strokeColor=none;fillColor=none;align=center;verticalAlign=middle;whiteSpace=wrap;rounded=0;" vertex="1" parent="8">
                    <mxGeometry y="40" width="120" height="20" as="geometry"/>
                </mxCell>
                <mxCell id="22" value="first_name" style="text;html=1;strokeColor=none;fillColor=none;align=center;verticalAlign=middle;whiteSpace=wrap;rounded=0;" vertex="1" parent="8">
                    <mxGeometry y="60" width="120" height="20" as="geometry"/>
                </mxCell>
                <mxCell id="23" value="last_name" style="text;html=1;strokeColor=none;fillColor=none;align=center;verticalAlign=middle;whiteSpace=wrap;rounded=0;" vertex="1" parent="8">
                    <mxGeometry y="80" width="120" height="20" as="geometry"/>
                </mxCell>
                <mxCell id="24" value="password_digest" style="text;html=1;strokeColor=none;fillColor=none;align=center;verticalAlign=middle;whiteSpace=wrap;rounded=0;" vertex="1" parent="8">
                    <mxGeometry y="100" width="120" height="20" as="geometry"/>
                </mxCell>
                <mxCell id="25" value="token" style="text;html=1;strokeColor=none;fillColor=none;align=center;verticalAlign=middle;whiteSpace=wrap;rounded=0;" vertex="1" parent="8">
                    <mxGeometry y="120" width="120" height="20" as="geometry"/>
                </mxCell>
                <mxCell id="68" value="index [&quot;email&quot;]" style="rounded=0;whiteSpace=wrap;html=1;" vertex="1" parent="8">
                    <mxGeometry y="160" width="120" height="20" as="geometry"/>
                </mxCell>
                <mxCell id="69" value="phone" style="rounded=0;whiteSpace=wrap;html=1;" vertex="1" parent="8">
                    <mxGeometry y="140" width="120" height="20" as="geometry"/>
                </mxCell>
                <mxCell id="27" value="Roles" style="swimlane;whiteSpace=wrap;html=1;" vertex="1" parent="1">
                    <mxGeometry x="170" y="210" width="120" height="40" as="geometry">
                        <mxRectangle x="40" y="40" width="70" height="30" as="alternateBounds"/>
                    </mxGeometry>
                </mxCell>
                <mxCell id="28" value="" style="rounded=0;whiteSpace=wrap;html=1;" vertex="1" parent="27">
                    <mxGeometry y="20" width="120" height="20" as="geometry"/>
                </mxCell>
                <mxCell id="34" value="slug" style="text;html=1;strokeColor=none;fillColor=none;align=center;verticalAlign=middle;whiteSpace=wrap;rounded=0;" vertex="1" parent="27">
                    <mxGeometry y="20" width="120" height="20" as="geometry"/>
                </mxCell>
                <mxCell id="40" value="Token" style="swimlane;whiteSpace=wrap;html=1;" vertex="1" parent="1">
                    <mxGeometry x="10" y="10" width="120" height="140" as="geometry">
                        <mxRectangle x="40" y="40" width="70" height="30" as="alternateBounds"/>
                    </mxGeometry>
                </mxCell>
                <mxCell id="41" value="" style="rounded=0;whiteSpace=wrap;html=1;" vertex="1" parent="40">
                    <mxGeometry y="20" width="120" height="20" as="geometry"/>
                </mxCell>
                <mxCell id="42" value="" style="rounded=0;whiteSpace=wrap;html=1;" vertex="1" parent="40">
                    <mxGeometry y="40" width="120" height="20" as="geometry"/>
                </mxCell>
                <mxCell id="43" value="" style="rounded=0;whiteSpace=wrap;html=1;" vertex="1" parent="40">
                    <mxGeometry y="60" width="120" height="20" as="geometry"/>
                </mxCell>
                <mxCell id="44" value="" style="rounded=0;whiteSpace=wrap;html=1;" vertex="1" parent="40">
                    <mxGeometry y="80" width="120" height="20" as="geometry"/>
                </mxCell>
                <mxCell id="45" value="" style="rounded=0;whiteSpace=wrap;html=1;" vertex="1" parent="40">
                    <mxGeometry y="100" width="120" height="20" as="geometry"/>
                </mxCell>
                <mxCell id="46" value="" style="rounded=0;whiteSpace=wrap;html=1;" vertex="1" parent="40">
                    <mxGeometry y="120" width="120" height="20" as="geometry"/>
                </mxCell>
                <mxCell id="47" value="user_id" style="text;html=1;strokeColor=none;fillColor=none;align=center;verticalAlign=middle;whiteSpace=wrap;rounded=0;" vertex="1" parent="40">
                    <mxGeometry y="20" width="120" height="20" as="geometry"/>
                </mxCell>
                <mxCell id="48" value="value" style="text;html=1;strokeColor=none;fillColor=none;align=center;verticalAlign=middle;whiteSpace=wrap;rounded=0;" vertex="1" parent="40">
                    <mxGeometry y="40" width="120" height="20" as="geometry"/>
                </mxCell>
                <mxCell id="49" value="expiry" style="text;html=1;strokeColor=none;fillColor=none;align=center;verticalAlign=middle;whiteSpace=wrap;rounded=0;" vertex="1" parent="40">
                    <mxGeometry y="60" width="120" height="20" as="geometry"/>
                </mxCell>
                <mxCell id="50" value="ip" style="text;html=1;strokeColor=none;fillColor=none;align=center;verticalAlign=middle;whiteSpace=wrap;rounded=0;" vertex="1" parent="40">
                    <mxGeometry y="80" width="120" height="20" as="geometry"/>
                </mxCell>
                <mxCell id="51" value="revocation_date" style="text;html=1;strokeColor=none;fillColor=none;align=center;verticalAlign=middle;whiteSpace=wrap;rounded=0;" vertex="1" parent="40">
                    <mxGeometry y="100" width="120" height="20" as="geometry"/>
                </mxCell>
                <mxCell id="52" value="index [&quot;user_id&quot;]" style="text;html=1;strokeColor=none;fillColor=none;align=center;verticalAlign=middle;whiteSpace=wrap;rounded=0;" vertex="1" parent="40">
                    <mxGeometry y="120" width="120" height="20" as="geometry"/>
                </mxCell>
                <mxCell id="53" value="User_role" style="swimlane;whiteSpace=wrap;html=1;" vertex="1" parent="1">
                    <mxGeometry x="10" y="170" width="120" height="100" as="geometry">
                        <mxRectangle x="40" y="40" width="70" height="30" as="alternateBounds"/>
                    </mxGeometry>
                </mxCell>
                <mxCell id="54" value="" style="rounded=0;whiteSpace=wrap;html=1;" vertex="1" parent="53">
                    <mxGeometry y="20" width="120" height="20" as="geometry"/>
                </mxCell>
                <mxCell id="55" value="" style="rounded=0;whiteSpace=wrap;html=1;" vertex="1" parent="53">
                    <mxGeometry y="40" width="120" height="20" as="geometry"/>
                </mxCell>
                <mxCell id="56" value="" style="rounded=0;whiteSpace=wrap;html=1;" vertex="1" parent="53">
                    <mxGeometry y="60" width="120" height="20" as="geometry"/>
                </mxCell>
                <mxCell id="57" value="" style="rounded=0;whiteSpace=wrap;html=1;" vertex="1" parent="53">
                    <mxGeometry y="80" width="120" height="20" as="geometry"/>
                </mxCell>
                <mxCell id="60" value="user_id" style="text;html=1;strokeColor=none;fillColor=none;align=center;verticalAlign=middle;whiteSpace=wrap;rounded=0;" vertex="1" parent="53">
                    <mxGeometry y="20" width="120" height="20" as="geometry"/>
                </mxCell>
                <mxCell id="61" value="role_id" style="text;html=1;strokeColor=none;fillColor=none;align=center;verticalAlign=middle;whiteSpace=wrap;rounded=0;" vertex="1" parent="53">
                    <mxGeometry y="40" width="120" height="20" as="geometry"/>
                </mxCell>
                <mxCell id="62" value="index [&quot;role_id&quot;]" style="text;html=1;strokeColor=none;fillColor=none;align=center;verticalAlign=middle;whiteSpace=wrap;rounded=0;" vertex="1" parent="53">
                    <mxGeometry y="60" width="120" height="20" as="geometry"/>
                </mxCell>
                <mxCell id="63" value="index [&quot;user_id&quot;]" style="text;html=1;strokeColor=none;fillColor=none;align=center;verticalAlign=middle;whiteSpace=wrap;rounded=0;" vertex="1" parent="53">
                    <mxGeometry y="80" width="120" height="20" as="geometry"/>
                </mxCell>
                <mxCell id="239" style="edgeStyle=none;html=1;exitX=0.5;exitY=1;exitDx=0;exitDy=0;entryX=0.571;entryY=-0.015;entryDx=0;entryDy=0;entryPerimeter=0;" edge="1" parent="1" source="70" target="89">
                    <mxGeometry relative="1" as="geometry"/>
                </mxCell>
                <mxCell id="70" value="Collection" style="swimlane;whiteSpace=wrap;html=1;" vertex="1" parent="1">
                    <mxGeometry x="410" y="10" width="120" height="100" as="geometry">
                        <mxRectangle x="40" y="40" width="70" height="30" as="alternateBounds"/>
                    </mxGeometry>
                </mxCell>
                <mxCell id="71" value="" style="rounded=0;whiteSpace=wrap;html=1;" vertex="1" parent="70">
                    <mxGeometry y="20" width="120" height="20" as="geometry"/>
                </mxCell>
                <mxCell id="72" value="" style="rounded=0;whiteSpace=wrap;html=1;" vertex="1" parent="70">
                    <mxGeometry y="40" width="120" height="20" as="geometry"/>
                </mxCell>
                <mxCell id="73" value="" style="rounded=0;whiteSpace=wrap;html=1;" vertex="1" parent="70">
                    <mxGeometry y="60" width="120" height="20" as="geometry"/>
                </mxCell>
                <mxCell id="77" value="user_id" style="text;html=1;strokeColor=none;fillColor=none;align=center;verticalAlign=middle;whiteSpace=wrap;rounded=0;" vertex="1" parent="70">
                    <mxGeometry y="20" width="120" height="20" as="geometry"/>
                </mxCell>
                <mxCell id="78" value="collection_name" style="text;html=1;strokeColor=none;fillColor=none;align=center;verticalAlign=middle;whiteSpace=wrap;rounded=0;" vertex="1" parent="70">
                    <mxGeometry y="40" width="120" height="20" as="geometry"/>
                </mxCell>
                <mxCell id="79" value="main_paint_scheme?" style="text;html=1;strokeColor=none;fillColor=none;align=center;verticalAlign=middle;whiteSpace=wrap;rounded=0;" vertex="1" parent="70">
                    <mxGeometry y="60" width="120" height="20" as="geometry"/>
                </mxCell>
                <mxCell id="86" style="edgeStyle=none;html=1;exitX=0;exitY=0;exitDx=0;exitDy=0;entryX=1;entryY=1;entryDx=0;entryDy=0;" edge="1" parent="1" source="21" target="48">
                    <mxGeometry relative="1" as="geometry"/>
                </mxCell>
                <mxCell id="87" style="edgeStyle=none;html=1;exitX=0;exitY=0;exitDx=0;exitDy=0;entryX=1;entryY=0;entryDx=0;entryDy=0;" edge="1" parent="1" source="24" target="61">
                    <mxGeometry relative="1" as="geometry"/>
                </mxCell>
                <mxCell id="88" style="edgeStyle=none;html=1;exitX=0;exitY=0.25;exitDx=0;exitDy=0;entryX=1;entryY=0;entryDx=0;entryDy=0;" edge="1" parent="1" source="34" target="62">
                    <mxGeometry relative="1" as="geometry"/>
                </mxCell>
                <mxCell id="89" value="Grouping" style="swimlane;whiteSpace=wrap;html=1;" vertex="1" parent="1">
                    <mxGeometry x="350" y="150" width="120" height="100" as="geometry">
                        <mxRectangle x="40" y="40" width="70" height="30" as="alternateBounds"/>
                    </mxGeometry>
                </mxCell>
                <mxCell id="90" value="" style="rounded=0;whiteSpace=wrap;html=1;" vertex="1" parent="89">
                    <mxGeometry y="20" width="120" height="20" as="geometry"/>
                </mxCell>
                <mxCell id="91" value="??collection_id" style="rounded=0;whiteSpace=wrap;html=1;" vertex="1" parent="89">
                    <mxGeometry y="40" width="120" height="20" as="geometry"/>
                </mxCell>
                <mxCell id="92" value="" style="rounded=0;whiteSpace=wrap;html=1;" vertex="1" parent="89">
                    <mxGeometry y="60" width="120" height="20" as="geometry"/>
                </mxCell>
                <mxCell id="93" value="" style="rounded=0;whiteSpace=wrap;html=1;" vertex="1" parent="89">
                    <mxGeometry y="80" width="120" height="20" as="geometry"/>
                </mxCell>
                <mxCell id="96" value="user_id" style="text;html=1;strokeColor=none;fillColor=none;align=center;verticalAlign=middle;whiteSpace=wrap;rounded=0;" vertex="1" parent="89">
                    <mxGeometry y="20" width="120" height="20" as="geometry"/>
                </mxCell>
                <mxCell id="98" value="grouping_name" style="text;html=1;strokeColor=none;fillColor=none;align=center;verticalAlign=middle;whiteSpace=wrap;rounded=0;" vertex="1" parent="89">
                    <mxGeometry y="60" width="120" height="20" as="geometry"/>
                </mxCell>
                <mxCell id="99" value="sub_paint_scheme?" style="text;html=1;strokeColor=none;fillColor=none;align=center;verticalAlign=middle;whiteSpace=wrap;rounded=0;" vertex="1" parent="89">
                    <mxGeometry y="80" width="120" height="20" as="geometry"/>
                </mxCell>
                <mxCell id="105" value="&lt;h1&gt;What to add&lt;/h1&gt;&lt;p&gt;A User will have zero or many saved Collections. A single collection can only belong to 1(one) User.&amp;nbsp;&lt;br&gt;&lt;br&gt;A User can have zero or many saved Paint Schemes. A Paint scheme would belong to a single User, but if you wanted to save paint schemes that other people could use, then paint schemes need to be standalone, and not only tied to an army or a single user? Or clone a paint scheme from someone else.&amp;nbsp;&lt;br&gt;&lt;/p&gt;&lt;p&gt;An Collection can have one &quot;main&quot; paint scheme saved. (Users's job to save them, but not down to the model level specifically. Paint scheme is just like a template or pattern to reference. So... many_to_many association? Collection can have many paint schemes, paint schemes can belong to many collections? has_and_belongs_to_many through?&lt;br&gt;&lt;br&gt;There would need to be a table of paints that can be referenced by the paint schemes. (I'm running into the same problem as with fish where I would need to search out paint, crap)&amp;nbsp;&lt;br&gt;&lt;br&gt;Collections have multiple Models. Not dealing with Detachments here, or even Units. To differentiate from Battlescribe, and be easier to code for class, I want to just save types of models with specific loadouts (WYSIWYG) So you would save &quot;Tactical Marine Seargent with pistol and power sword&quot; different from the &quot;Tactical Marine with Bolter and Pistol&quot; because you want to keep track of your available quantity of models.&amp;nbsp;&lt;br&gt;Models can have optional unique paint scheme saved separate from the Army &quot;main&quot; theme, for special characters, Aeldari schools, different factions etc.&amp;nbsp;&lt;br&gt;&lt;br&gt;App to track mini inventory.&amp;nbsp;&lt;br&gt;&lt;br&gt;Make game-agnostic. Let you save D&amp;amp;D, Frostgrave, Infinity, etc if you want. Don't lock to just 40k. So instead, have a Collection(gametype), a grouping (faction, board game name, custom grouping [Player characters, Orks, etc]), and then within a grouping, save the individual models.&amp;nbsp;&lt;br&gt;&lt;br&gt;Optional sub-grouping between grouping and models?&amp;nbsp;&lt;br&gt;&lt;/p&gt;" style="text;html=1;strokeColor=none;fillColor=none;spacing=5;spacingTop=-20;whiteSpace=wrap;overflow=hidden;rounded=0;" vertex="1" parent="1">
                    <mxGeometry x="640" y="10" width="200" height="1080" as="geometry"/>
                </mxCell>
                <mxCell id="138" value="SubGroup" style="swimlane;whiteSpace=wrap;html=1;" vertex="1" parent="1">
                    <mxGeometry x="500" y="180" width="120" height="120" as="geometry">
                        <mxRectangle x="40" y="40" width="70" height="30" as="alternateBounds"/>
                    </mxGeometry>
                </mxCell>
                <mxCell id="139" value="" style="rounded=0;whiteSpace=wrap;html=1;" vertex="1" parent="138">
                    <mxGeometry y="20" width="120" height="20" as="geometry"/>
                </mxCell>
                <mxCell id="140" value="" style="rounded=0;whiteSpace=wrap;html=1;" vertex="1" parent="138">
                    <mxGeometry y="40" width="120" height="20" as="geometry"/>
                </mxCell>
                <mxCell id="141" value="" style="rounded=0;whiteSpace=wrap;html=1;" vertex="1" parent="138">
                    <mxGeometry y="60" width="120" height="20" as="geometry"/>
                </mxCell>
                <mxCell id="142" value="" style="rounded=0;whiteSpace=wrap;html=1;" vertex="1" parent="138">
                    <mxGeometry y="80" width="120" height="20" as="geometry"/>
                </mxCell>
                <mxCell id="143" value="" style="rounded=0;whiteSpace=wrap;html=1;" vertex="1" parent="138">
                    <mxGeometry y="100" width="120" height="20" as="geometry"/>
                </mxCell>
                <mxCell id="145" value="user_id" style="text;html=1;strokeColor=none;fillColor=none;align=center;verticalAlign=middle;whiteSpace=wrap;rounded=0;" vertex="1" parent="138">
                    <mxGeometry y="20" width="120" height="20" as="geometry"/>
                </mxCell>
                <mxCell id="146" value="??collection_id" style="text;html=1;strokeColor=none;fillColor=none;align=center;verticalAlign=middle;whiteSpace=wrap;rounded=0;" vertex="1" parent="138">
                    <mxGeometry y="40" width="120" height="20" as="geometry"/>
                </mxCell>
                <mxCell id="147" value="??grouping_id" style="text;html=1;strokeColor=none;fillColor=none;align=center;verticalAlign=middle;whiteSpace=wrap;rounded=0;" vertex="1" parent="138">
                    <mxGeometry y="60" width="120" height="20" as="geometry"/>
                </mxCell>
                <mxCell id="148" value="sub_grouping_name" style="text;html=1;strokeColor=none;fillColor=none;align=center;verticalAlign=middle;whiteSpace=wrap;rounded=0;" vertex="1" parent="138">
                    <mxGeometry y="80" width="120" height="20" as="geometry"/>
                </mxCell>
                <mxCell id="149" value="sub-paint_schem?" style="text;html=1;strokeColor=none;fillColor=none;align=center;verticalAlign=middle;whiteSpace=wrap;rounded=0;" vertex="1" parent="138">
                    <mxGeometry y="100" width="120" height="20" as="geometry"/>
                </mxCell>
                <mxCell id="153" value="Model" style="swimlane;whiteSpace=wrap;html=1;" vertex="1" parent="1">
                    <mxGeometry x="370" y="350" width="120" height="180" as="geometry">
                        <mxRectangle x="40" y="40" width="70" height="30" as="alternateBounds"/>
                    </mxGeometry>
                </mxCell>
                <mxCell id="154" value="" style="rounded=0;whiteSpace=wrap;html=1;" vertex="1" parent="153">
                    <mxGeometry y="20" width="120" height="20" as="geometry"/>
                </mxCell>
                <mxCell id="155" value="" style="rounded=0;whiteSpace=wrap;html=1;" vertex="1" parent="153">
                    <mxGeometry y="40" width="120" height="20" as="geometry"/>
                </mxCell>
                <mxCell id="156" value="" style="rounded=0;whiteSpace=wrap;html=1;" vertex="1" parent="153">
                    <mxGeometry y="60" width="120" height="20" as="geometry"/>
                </mxCell>
                <mxCell id="157" value="" style="rounded=0;whiteSpace=wrap;html=1;" vertex="1" parent="153">
                    <mxGeometry y="80" width="120" height="20" as="geometry"/>
                </mxCell>
                <mxCell id="158" value="model_name" style="rounded=0;whiteSpace=wrap;html=1;" vertex="1" parent="153">
                    <mxGeometry y="100" width="120" height="20" as="geometry"/>
                </mxCell>
                <mxCell id="159" value="" style="rounded=0;whiteSpace=wrap;html=1;" vertex="1" parent="153">
                    <mxGeometry y="120" width="120" height="20" as="geometry"/>
                </mxCell>
                <mxCell id="163" value="??sub_grouping_id?" style="text;html=1;strokeColor=none;fillColor=none;align=center;verticalAlign=middle;whiteSpace=wrap;rounded=0;" vertex="1" parent="153">
                    <mxGeometry y="80" width="120" height="20" as="geometry"/>
                </mxCell>
                <mxCell id="165" value="model_loadout" style="text;html=1;strokeColor=none;fillColor=none;align=center;verticalAlign=middle;whiteSpace=wrap;rounded=0;" vertex="1" parent="153">
                    <mxGeometry y="120" width="120" height="20" as="geometry"/>
                </mxCell>
                <mxCell id="166" value="specific_paint_scheme" style="rounded=0;whiteSpace=wrap;html=1;" vertex="1" parent="153">
                    <mxGeometry y="160" width="120" height="20" as="geometry"/>
                </mxCell>
                <mxCell id="167" value="model_quantity" style="rounded=0;whiteSpace=wrap;html=1;" vertex="1" parent="153">
                    <mxGeometry y="140" width="120" height="20" as="geometry"/>
                </mxCell>
                <mxCell id="198" value="user_id" style="text;html=1;strokeColor=none;fillColor=none;align=center;verticalAlign=middle;whiteSpace=wrap;rounded=0;" vertex="1" parent="153">
                    <mxGeometry y="20" width="120" height="20" as="geometry"/>
                </mxCell>
                <mxCell id="199" value="??collection_id" style="text;html=1;strokeColor=none;fillColor=none;align=center;verticalAlign=middle;whiteSpace=wrap;rounded=0;" vertex="1" parent="153">
                    <mxGeometry y="40" width="120" height="20" as="geometry"/>
                </mxCell>
                <mxCell id="200" value="??grouping_id" style="text;html=1;strokeColor=none;fillColor=none;align=center;verticalAlign=middle;whiteSpace=wrap;rounded=0;" vertex="1" parent="153">
                    <mxGeometry y="60" width="120" height="20" as="geometry"/>
                </mxCell>
                <mxCell id="168" value="PaintPot" style="swimlane;whiteSpace=wrap;html=1;" vertex="1" parent="1">
                    <mxGeometry x="40" y="640" width="120" height="60" as="geometry">
                        <mxRectangle x="40" y="40" width="70" height="30" as="alternateBounds"/>
                    </mxGeometry>
                </mxCell>
                <mxCell id="169" value="" style="rounded=0;whiteSpace=wrap;html=1;" vertex="1" parent="168">
                    <mxGeometry y="20" width="120" height="20" as="geometry"/>
                </mxCell>
                <mxCell id="170" value="" style="rounded=0;whiteSpace=wrap;html=1;" vertex="1" parent="168">
                    <mxGeometry y="40" width="120" height="20" as="geometry"/>
                </mxCell>
                <mxCell id="176" value="paint_name" style="text;html=1;strokeColor=none;fillColor=none;align=center;verticalAlign=middle;whiteSpace=wrap;rounded=0;" vertex="1" parent="168">
                    <mxGeometry y="40" width="120" height="20" as="geometry"/>
                </mxCell>
                <mxCell id="216" value="paint_brand_id" style="text;html=1;strokeColor=none;fillColor=none;align=center;verticalAlign=middle;whiteSpace=wrap;rounded=0;" vertex="1" parent="168">
                    <mxGeometry y="20" width="120" height="20" as="geometry"/>
                </mxCell>
                <mxCell id="183" value="PaintScheme" style="swimlane;whiteSpace=wrap;html=1;" vertex="1" parent="1">
                    <mxGeometry x="200" y="640" width="120" height="60" as="geometry">
                        <mxRectangle x="40" y="40" width="70" height="30" as="alternateBounds"/>
                    </mxGeometry>
                </mxCell>
                <mxCell id="184" value="" style="rounded=0;whiteSpace=wrap;html=1;" vertex="1" parent="183">
                    <mxGeometry y="20" width="120" height="20" as="geometry"/>
                </mxCell>
                <mxCell id="185" value="" style="rounded=0;whiteSpace=wrap;html=1;" vertex="1" parent="183">
                    <mxGeometry y="40" width="120" height="20" as="geometry"/>
                </mxCell>
                <mxCell id="190" value="user_id" style="text;html=1;strokeColor=none;fillColor=none;align=center;verticalAlign=middle;whiteSpace=wrap;rounded=0;" vertex="1" parent="183">
                    <mxGeometry y="20" width="120" height="20" as="geometry"/>
                </mxCell>
                <mxCell id="191" value="scheme_description" style="text;html=1;strokeColor=none;fillColor=none;align=center;verticalAlign=middle;whiteSpace=wrap;rounded=0;" vertex="1" parent="183">
                    <mxGeometry y="40" width="120" height="20" as="geometry"/>
                </mxCell>
                <mxCell id="201" value="PaintBrand" style="swimlane;whiteSpace=wrap;html=1;" vertex="1" parent="1">
                    <mxGeometry x="40" y="560" width="120" height="40" as="geometry">
                        <mxRectangle x="40" y="40" width="70" height="30" as="alternateBounds"/>
                    </mxGeometry>
                </mxCell>
                <mxCell id="202" value="" style="rounded=0;whiteSpace=wrap;html=1;" vertex="1" parent="201">
                    <mxGeometry y="20" width="120" height="20" as="geometry"/>
                </mxCell>
                <mxCell id="208" value="brand_name" style="text;html=1;strokeColor=none;fillColor=none;align=center;verticalAlign=middle;whiteSpace=wrap;rounded=0;" vertex="1" parent="201">
                    <mxGeometry y="20" width="120" height="20" as="geometry"/>
                </mxCell>
                <mxCell id="217" value="PaintsInScheme" style="swimlane;whiteSpace=wrap;html=1;" vertex="1" parent="1">
                    <mxGeometry x="120" y="750" width="120" height="60" as="geometry">
                        <mxRectangle x="40" y="40" width="70" height="30" as="alternateBounds"/>
                    </mxGeometry>
                </mxCell>
                <mxCell id="218" value="" style="rounded=0;whiteSpace=wrap;html=1;" vertex="1" parent="217">
                    <mxGeometry y="20" width="120" height="20" as="geometry"/>
                </mxCell>
                <mxCell id="219" value="" style="rounded=0;whiteSpace=wrap;html=1;" vertex="1" parent="217">
                    <mxGeometry y="40" width="120" height="20" as="geometry"/>
                </mxCell>
                <mxCell id="224" value="paint_pot_id" style="text;html=1;strokeColor=none;fillColor=none;align=center;verticalAlign=middle;whiteSpace=wrap;rounded=0;" vertex="1" parent="217">
                    <mxGeometry y="40" width="120" height="20" as="geometry"/>
                </mxCell>
                <mxCell id="231" value="paint_scheme_id" style="text;html=1;strokeColor=none;fillColor=none;align=center;verticalAlign=middle;whiteSpace=wrap;rounded=0;" vertex="1" parent="217">
                    <mxGeometry y="20" width="120" height="20" as="geometry"/>
                </mxCell>
                <mxCell id="234" style="edgeStyle=none;html=1;exitX=0.5;exitY=1;exitDx=0;exitDy=0;entryX=0.5;entryY=0;entryDx=0;entryDy=0;" edge="1" parent="1" source="208" target="168">
                    <mxGeometry relative="1" as="geometry"/>
                </mxCell>
                <mxCell id="235" style="edgeStyle=none;html=1;exitX=0.5;exitY=1;exitDx=0;exitDy=0;entryX=0.5;entryY=0;entryDx=0;entryDy=0;" edge="1" parent="1" source="176" target="217">
                    <mxGeometry relative="1" as="geometry"/>
                </mxCell>
                <mxCell id="236" style="edgeStyle=none;html=1;exitX=0.5;exitY=1;exitDx=0;exitDy=0;" edge="1" parent="1" source="191">
                    <mxGeometry relative="1" as="geometry">
                        <mxPoint x="180" y="750" as="targetPoint"/>
                    </mxGeometry>
                </mxCell>
                <mxCell id="237" style="edgeStyle=none;html=1;exitX=1;exitY=0;exitDx=0;exitDy=0;entryX=0.5;entryY=0;entryDx=0;entryDy=0;" edge="1" parent="1" source="25" target="183">
                    <mxGeometry relative="1" as="geometry">
                        <Array as="points">
                            <mxPoint x="320" y="230"/>
                        </Array>
                    </mxGeometry>
                </mxCell>
                <mxCell id="238" style="edgeStyle=none;html=1;exitX=1;exitY=0.5;exitDx=0;exitDy=0;entryX=0;entryY=0;entryDx=0;entryDy=0;" edge="1" parent="1" source="21" target="78">
                    <mxGeometry relative="1" as="geometry"/>
                </mxCell>
                <mxCell id="240" style="edgeStyle=none;html=1;exitX=1;exitY=0;exitDx=0;exitDy=0;entryX=0;entryY=1;entryDx=0;entryDy=0;" edge="1" parent="1" source="98" target="146">
                    <mxGeometry relative="1" as="geometry"/>
                </mxCell>
                <mxCell id="241" style="edgeStyle=none;html=1;exitX=0.5;exitY=1;exitDx=0;exitDy=0;entryX=0.5;entryY=0;entryDx=0;entryDy=0;" edge="1" parent="1" source="99" target="153">
                    <mxGeometry relative="1" as="geometry"/>
                </mxCell>
                <mxCell id="243" style="edgeStyle=none;html=1;exitX=0.5;exitY=1;exitDx=0;exitDy=0;entryX=0.588;entryY=-0.003;entryDx=0;entryDy=0;entryPerimeter=0;" edge="1" parent="1" source="149" target="153">
                    <mxGeometry relative="1" as="geometry">
                        <Array as="points">
                            <mxPoint x="540" y="330"/>
                            <mxPoint x="460" y="330"/>
                        </Array>
                    </mxGeometry>
                </mxCell>
                <mxCell id="244" style="edgeStyle=none;html=1;exitX=1;exitY=0.5;exitDx=0;exitDy=0;entryX=0;entryY=0.5;entryDx=0;entryDy=0;" edge="1" parent="1" source="190" target="163">
                    <mxGeometry relative="1" as="geometry">
                        <Array as="points">
                            <mxPoint x="350" y="630"/>
                            <mxPoint x="340" y="500"/>
                        </Array>
                    </mxGeometry>
                </mxCell>
            </root>
        </mxGraphModel>
    </diagram>
</mxfile>
